<?xml version="1.0" encoding="UTF-8"?>
<svg width="370px" height="210px" viewBox="0 0 370 210" version="1.1" xmlns="http://www.w3.org/2000/svg" xmlns:xlink="http://www.w3.org/1999/xlink">
    <!-- Generator: Sketch 44 (41411) - http://www.bohemiancoding.com/sketch -->
    <title>Untitled</title>
    <desc>Created with Sketch.</desc>
    <defs>
        <polygon id="path-1" points="0.41625 208.22125 208.565 208.22125 208.565 0.07625 0.41625 0.07625"></polygon>
        <polygon id="path-3" points="0.9525 207.53125 207.72 207.53125 207.72 0.765 0.9525 0.765"></polygon>
    </defs>
    <g id="Page-1" stroke="none" stroke-width="1" fill="none" fill-rule="evenodd">
        <g id="FINALISSIMO">
            <g id="g74" transform="translate(104.860446, 105.153800) scale(-1, 1) rotate(-180.000000) translate(-104.860446, -105.153800) translate(0.360446, 0.653800)">
                <g id="g82">
                    <g id="g84-Clipped">
                        <mask id="mask-2" fill="white">
                            <use xlink:href="#path-1"></use>
                        </mask>
                        <g id="path80"></g>
                        <g id="g84" opacity="0.80751002" mask="url(#mask-2)">
                            <path d="M207.87375,104.12625 C207.86125,47.02875 161.56625,0.75375 104.47,0.765 C47.3725,0.7775 1.095,47.0725 1.10625,104.17 C1.11875,161.2675 47.415,207.54375 104.5125,207.53125 C161.0075,207.52 207.03125,162.16 207.86375,105.67125" id="path86" fill="#070808" fill-rule="nonzero"></path>
                            <path d="M207.87375,104.12625 C207.86125,47.02875 161.56625,0.75375 104.47,0.765 C47.3725,0.7775 1.095,47.0725 1.10625,104.17 C1.11875,161.2675 47.415,207.54375 104.5125,207.53125 C161.0075,207.52 207.03125,162.16 207.86375,105.67125" id="path88"></path>
                        </g>
                    </g>
                </g>
            </g>
            <g id="g90" transform="translate(264.735446, 105.278800) scale(-1, 1) rotate(-180.000000) translate(-264.735446, -105.278800) translate(160.360446, 0.903800)">
                <g id="g98">
                    <g id="g100-Clipped">
                        <mask id="mask-4" fill="white">
                            <use xlink:href="#path-3"></use>
                        </mask>
                        <g id="path96"></g>
                        <g id="g100" opacity="0.62441999" mask="url(#mask-4)" fill-rule="nonzero" fill="#000000">
                            <path d="M207.72,104.1275 C207.7075,47.03 161.41375,0.75375 104.31375,0.765 C47.21625,0.7775 0.94125,47.0725 0.9525,104.17 C0.965,161.2675 47.26125,207.54375 104.3575,207.53125 C160.855,207.52 206.8775,162.16125 207.71,105.67125" id="path102"></path>
                        </g>
                    </g>
                </g>
            </g>
            <path d="M96.8842,110.73129 C95.36545,118.09629 91.34295,123.94879 87.92545,123.75004 C84.5092,123.61879 82.99045,117.50379 84.5092,110.14004 C86.02795,102.77629 90.0517,96.99004 93.4692,97.12254 C96.8842,97.32004 98.40295,103.36754 96.8842,110.73129 M107.9692,103.10629 C106.0717,96.79254 100.4542,92.58629 93.3167,92.84879 C83.59795,93.24254 74.63795,101.72379 73.27295,111.85004 C71.9817,121.91004 78.7392,129.73379 88.4567,129.33879 C98.17545,128.94504 107.1342,120.46254 108.4267,110.40379 C108.5017,110.27129 108.5017,110.14004 108.5017,110.00754 C114.5767,107.97004 118.1442,102.90879 118.1442,102.90879 L118.1442,99.75129 C118.1442,99.75129 109.56545,106.85379 107.9692,103.10629" id="path104" fill="#000000" fill-rule="nonzero"></path>
            <path d="M125.0392,116.25504 C122.9892,111.25754 125.0392,105.53754 128.45545,101.26379 C129.5942,99.88379 131.03795,98.24004 132.86045,97.58254 C135.06045,96.72629 137.03545,97.77879 137.9467,99.55379 C138.47795,100.67129 138.70545,103.10629 138.70545,103.10629 L139.0092,106.39254 L147.51295,106.39254 C147.28545,101.33004 145.8417,95.21504 139.6917,93.24254 C134.98545,91.73004 129.44295,92.71629 125.2667,95.01754 C120.7117,97.51629 117.2942,101.33004 115.3967,105.73504 C114.71295,107.37879 114.1817,109.21879 113.87795,111.06004 C113.65045,112.37629 113.5742,113.69004 113.5742,114.87379 C113.4979,119.21379 114.7892,122.43504 116.99045,124.67129 C126.71045,134.59879 148.8792,125.92129 153.51045,119.08254 C153.66295,118.22754 154.04295,116.65004 154.04295,115.72879 C154.04295,116.84629 131.11295,131.04754 125.0392,116.25504" id="path106" fill="#000000" fill-rule="nonzero"></path>
            <path d="M162.49295,116.25504 C160.4417,111.25754 162.49295,105.53754 165.90795,101.26379 C167.0467,99.88379 168.4892,98.24004 170.3117,97.58254 C172.5142,96.72629 174.48795,97.77879 175.3992,99.55379 C175.9317,100.67129 176.15795,103.10629 176.15795,103.10629 L176.4617,106.39254 L184.96545,106.39254 C184.73795,101.33004 183.29545,95.21504 177.14545,93.24254 C172.4392,91.73004 166.89545,92.71629 162.7192,95.01754 C158.1642,97.51629 154.7467,101.33004 152.8492,105.73504 C152.1667,107.37879 151.6342,109.21879 151.33045,111.06004 C151.10295,112.37629 151.02795,113.69004 151.02795,114.87379 C150.95045,119.21379 152.2417,122.43504 154.44295,124.67129 C164.16295,134.59879 186.33295,125.92129 190.9642,119.08254 C191.11545,118.22754 191.49545,116.65004 191.49545,115.72879 C191.49545,116.84629 168.56545,131.04754 162.49295,116.25504" id="path108" fill="#000000" fill-rule="nonzero"></path>
            <path d="M200.0967,110.33754 C201.0842,103.17004 205.9417,97.38629 210.9542,97.38629 C212.54795,97.38629 213.91545,97.97629 215.12795,98.96254 L210.4217,122.10754 L210.4217,122.69879 C209.43545,123.09379 208.4492,123.35629 207.46045,123.35629 C202.3742,123.35629 199.11045,117.50379 200.0967,110.33754 M220.8242,121.58004 C221.0517,120.46254 226.4417,93.63754 226.4417,93.63754 L216.19295,93.63754 L215.8117,95.28129 C213.7642,93.76879 211.18045,92.84879 208.29795,92.84879 C199.64045,92.84879 191.21295,100.93504 189.54295,110.99379 C187.8717,120.98879 193.5667,129.07504 202.22295,129.07504 C205.33545,129.07504 208.37295,128.09004 211.10545,126.31379 C211.94045,127.76129 213.68795,129.07504 217.1792,129.14129 C224.6967,129.14129 230.8467,122.69879 230.8467,122.69879 L231.4542,119.67379 C231.4542,119.67379 219.83795,126.38004 220.8242,121.58004" id="path110" fill="#000000" fill-rule="nonzero"></path>
            <path d="M282.15045,121.58004 L286.4792,99.81754 C286.4792,99.81754 287.84545,92.91254 279.7967,92.84879 C273.9492,92.84879 268.40795,95.08379 266.28045,96.20129 C265.5217,94.55879 263.8517,92.91254 259.9042,92.84879 C253.8292,92.84879 249.12295,94.95129 247.52795,95.80629 L247.98545,93.63754 L234.31795,93.63754 L233.40795,98.17379 L235.76045,98.17379 C236.9742,98.17379 236.59545,99.48879 236.59545,99.48879 L230.8242,128.28629 L241.07545,128.28629 L246.38795,101.59254 C248.36295,100.54004 257.24795,96.13629 256.3342,100.40879 C256.0317,102.05379 250.7167,128.28629 250.7167,128.28629 L260.96545,128.28629 L266.3592,101.52629 C268.48295,100.40879 277.0617,96.20129 276.1517,100.40879 C275.9242,101.52629 273.4192,114.28254 271.82545,122.10754 C271.82545,122.10754 270.45795,129.01004 278.58045,129.14129 C286.0217,129.14129 292.1717,122.76379 292.1717,122.76379 L292.78045,119.67379 C292.78045,119.67379 281.1642,126.38004 282.15045,121.58004" id="path112" fill="#000000" fill-rule="nonzero"></path>
            <path d="M94.3842,108.23254 C92.86545,115.59629 88.84295,121.44879 85.42545,121.25004 C82.0092,121.11879 80.49045,115.00379 82.0092,107.64004 C83.52795,100.27629 87.5517,94.49004 90.9692,94.62254 C94.3842,94.82004 95.90295,100.86754 94.3842,108.23254 M105.4692,100.60629 C103.5717,94.29254 97.9542,90.08629 90.8167,90.34879 C81.09795,90.74254 72.13795,99.22379 70.77295,109.35004 C69.4817,119.41004 76.2392,127.23379 85.9567,126.83879 C95.67545,126.44504 104.6342,117.96254 105.9267,107.90379 C106.0017,107.77129 106.0017,107.64004 106.0017,107.50754 C112.0767,105.47004 115.6442,100.40879 115.6442,100.40879 L115.6442,97.25129 C115.6442,97.25129 107.06545,104.35379 105.4692,100.60629" id="path114" fill="#FFFFFF" fill-rule="nonzero"></path>
            <path d="M122.5392,113.75504 C120.4892,108.75754 122.5392,103.03754 125.95545,98.76379 C127.0942,97.38379 128.53795,95.74004 130.36045,95.08254 C132.56045,94.22629 134.53545,95.27879 135.4467,97.05379 C135.97795,98.17129 136.20545,100.60629 136.20545,100.60629 L136.5092,103.89254 L145.01295,103.89254 C144.78545,98.83004 143.3417,92.71504 137.1917,90.74254 C132.48545,89.23004 126.94295,90.21629 122.7667,92.51754 C118.2117,95.01629 114.7942,98.83004 112.8967,103.23504 C112.21295,104.87879 111.6817,106.71879 111.37795,108.56004 C111.15045,109.87629 111.0742,111.19004 111.0742,112.37379 C110.9979,116.71379 112.2892,119.93504 114.49045,122.17129 C124.21045,132.09879 146.3792,123.42129 151.01045,116.58254 C151.16295,115.72754 151.54295,114.15004 151.54295,113.22879 C151.54295,114.34629 128.61295,128.54754 122.5392,113.75504" id="path116" fill="#FFFFFF" fill-rule="nonzero"></path>
            <path d="M159.99295,113.75504 C157.9417,108.75754 159.99295,103.03754 163.40795,98.76379 C164.5467,97.38379 165.9892,95.74004 167.8117,95.08254 C170.0142,94.22629 171.98795,95.27879 172.8992,97.05379 C173.4317,98.17129 173.65795,100.60629 173.65795,100.60629 L173.9617,103.89254 L182.46545,103.89254 C182.23795,98.83004 180.79545,92.71504 174.64545,90.74254 C169.9392,89.23004 164.39545,90.21629 160.2192,92.51754 C155.6642,95.01629 152.2467,98.83004 150.3492,103.23504 C149.6667,104.87879 149.1342,106.71879 148.83045,108.56004 C148.60295,109.87629 148.52795,111.19004 148.52795,112.37379 C148.45045,116.71379 149.7417,119.93504 151.94295,122.17129 C161.66295,132.09879 183.83295,123.42129 188.4642,116.58254 C188.61545,115.72754 188.99545,114.15004 188.99545,113.22879 C188.99545,114.34629 166.06545,128.54754 159.99295,113.75504" id="path118" fill="#FFFFFF" fill-rule="nonzero"></path>
            <path d="M197.5967,107.83754 C198.5842,100.67004 203.4417,94.88629 208.4542,94.88629 C210.04795,94.88629 211.41545,95.47629 212.62795,96.46254 L207.9217,119.60754 L207.9217,120.19879 C206.93545,120.59379 205.94795,120.85629 204.96045,120.85629 C199.8742,120.85629 196.61045,115.00379 197.5967,107.83754 M218.3242,119.08004 C218.5517,117.96254 223.9417,91.13754 223.9417,91.13754 L213.69295,91.13754 L213.3117,92.78129 C211.2642,91.26879 208.68045,90.34879 205.7967,90.34879 C197.14045,90.34879 188.71295,98.43504 187.04295,108.49379 C185.3717,118.48879 191.0667,126.57504 199.72295,126.57504 C202.83545,126.57504 205.87295,125.59004 208.60545,123.81379 C209.44045,125.26129 211.18795,126.57504 214.6792,126.64129 C222.1967,126.64129 228.3467,120.19879 228.3467,120.19879 L228.9542,117.17379 C228.9542,117.17379 217.33795,123.88004 218.3242,119.08004" id="path120" fill="#FFFFFF" fill-rule="nonzero"></path>
            <path d="M279.65045,119.08004 L283.9792,97.31754 C283.9792,97.31754 285.34545,90.41254 277.2967,90.34879 C271.4492,90.34879 265.90795,92.58379 263.78045,93.70129 C263.0217,92.05879 261.3517,90.41254 257.4042,90.34879 C251.3292,90.34879 246.62295,92.45129 245.02795,93.30629 L245.48545,91.13754 L231.81795,91.13754 L230.90795,95.67379 L233.26045,95.67379 C234.4742,95.67379 234.09545,96.98879 234.09545,96.98879 L228.3242,125.78629 L238.57545,125.78629 L243.88795,99.09254 C245.86295,98.04004 254.74795,93.63629 253.8342,97.90879 C253.5317,99.55379 248.2167,125.78629 248.2167,125.78629 L258.46545,125.78629 L263.8592,99.02629 C265.98295,97.90879 274.5617,93.70129 273.6517,97.90879 C273.4242,99.02629 270.9192,111.78254 269.32545,119.60754 C269.32545,119.60754 267.95795,126.51004 276.08045,126.64129 C283.5217,126.64129 289.6717,120.26379 289.6717,120.26379 L290.28045,117.17379 C290.28045,117.17379 278.6642,123.88004 279.65045,119.08004" id="path122" fill="#FFFFFF" fill-rule="nonzero"></path>
            <path d="M74.10045,77.35254 L294.11045,80.40629 C311.3342,80.64504 326.73545,88.83629 327.2817,109.05379 L327.353,111.71129 C327.9017,131.92879 314.1817,136.77504 297.0842,138.78754 L77.46795,164.64629 C60.3717,166.65879 40.2667,146.74879 39.2392,126.54879 L38.81545,118.23754 C37.7867,98.03754 56.8767,77.11504 74.10045,77.35254 L74.10045,77.35254 Z" id="path124" stroke="#000000" stroke-width="1.87124991"></path>
            <path d="M72.35045,74.73129 L291.4617,77.78379 C308.61545,78.02254 323.9517,86.21379 324.4967,106.43129 L324.5692,109.09004 C325.1142,129.30754 311.4492,134.15379 294.42295,136.16504 L75.70545,162.02379 C58.6792,164.03754 38.6567,144.12629 37.63295,123.92629 L37.21045,115.61629 C36.1867,95.41504 55.19795,74.49254 72.35045,74.73129 L72.35045,74.73129 Z" id="path126" stroke="#FFFFFF" stroke-width="1.92375004"></path>
        </g>
    </g>
</svg>